<svg xmlns="http://www.w3.org/2000/svg" width="113.305" height="37.47" viewBox="0 0 113.305 37.47">
  <g id="logo_prex_white" transform="translate(-450.711 -340.846)">
    <path id="Trazado_4432" data-name="Trazado 4432" d="M466.71,359.871a6.094,6.094,0,1,0,0-12.178h-8.254v12.178Zm-16-19.025h16c8.643,0,14.311,5.556,14.311,13.02s-5.668,12.852-14.311,12.852h-8.254v11.037h-7.745Z" transform="translate(0)" fill="#fff"/>
    <path id="Trazado_4433" data-name="Trazado 4433" d="M562.288,379.281c0-15.151,13.862-14.708,19.025-13.417l-.9,6.847c-6.23-1.908-10.832.842-10.832,5.949v16.219h-7.3Z" transform="translate(-78.183 -17.124)" fill="#fff"/>
    <path id="Trazado_4434" data-name="Trazado 4434" d="M650.211,377.731a7.746,7.746,0,0,0-14.985,0Zm-7.521-12.01c9.6,0,16.388,7.97,14.928,17.567h-22.5a7.9,7.9,0,0,0,8.081,6.173,8.264,8.264,0,0,0,7.408-4.209l6.005,2.693a15.217,15.217,0,0,1-13.638,7.8c-8.755,0-15.433-6.511-15.433-15.04a14.81,14.81,0,0,1,15.152-14.985" transform="translate(-123.904 -17.43)" fill="#fff"/>
    <path id="Trazado_4435" data-name="Trazado 4435" d="M738.7,367.6h-8.98l9.8,13.554,4.413-6Z" transform="translate(-195.503 -18.744)" fill="#fff"/>
    <path id="Trazado_4436" data-name="Trazado 4436" d="M781.85,424.971l5.219,7.516h8.979l-9.785-13.532Z" transform="translate(-232.032 -54.732)" fill="#fff"/>
    <path id="Trazado_4437" data-name="Trazado 4437" d="M759.519,367.6h-8.53l-21.271,28.9h8.595Z" transform="translate(-195.503 -18.744)" fill="#fff"/>
  </g>
</svg>
